<svg width="420" height="420" viewBox="0 0 420 420" fill="none" xmlns="http://www.w3.org/2000/svg">
<circle cx="210" cy="210" r="204" fill="#FFCC4D" stroke="#66471B" stroke-width="12"/>
<path d="M111.576 220.832C122.424 213.152 127.848 201.008 127.848 184.4V116.432L114.6 113.264V105.2H164.568V113.264L151.32 116.432V184.4C151.32 194.48 147.96 203.696 141.24 212.048C134.616 220.4 127.56 226.208 120.072 229.472L111.576 220.832Z" fill="#66471B"/>
<path d="M251.576 220.832C262.424 213.152 267.848 201.008 267.848 184.4V116.432L254.6 113.264V105.2H304.568V113.264L291.32 116.432V184.4C291.32 194.48 287.96 203.696 281.24 212.048C274.616 220.4 267.56 226.208 260.072 229.472L251.576 220.832Z" fill="#66471B"/>
<path d="M99 242C99 282.08 145.587 333 210.5 333C275.413 333 322 282.444 322 242C322 242 217.261 269.866 99 242Z" fill="#66471B"/>
<path d="M215.995 266.074L204.995 266.024C172.567 265.276 150 260 150 260V330.357C150 360.678 170.167 391 210.5 391C250.833 391 271 360.678 271 330.357V260.414C251.62 264.407 232.814 265.903 215.995 266.074Z" fill="#E8596E"/>
<path d="M210.505 349C213.54 349 216 346.543 216 343.513V266.05L205 266V343.513C205.01 346.543 207.47 349 210.505 349Z" fill="#DD2F45"/>
</svg>
